:SAMPLES-PER-SECOND 30
:FULLY-SPECIFIED
:DEGREES
177
root  -25.7964 40.2852 -2.83205 -112.206 -84.9122 102.353
RightUpLeg  -18.2471 -2.76378 -8.83205
RightLeg  47.1312 -2.99394 -3.79129
RightFoot  4.86981 -0.616335 4.56954
RightToes  5.82063e-011 0 -3.6325e-017
Spine  8.70213 -0.895301 -1.82662
Spine1  9.24716 -0.361521 -3.82983
HEad  -11.2446 4.31405 -5.79623
LeftShoulder1  8.94838 -12.5762 -48.579
LeftArm  -9.25221 8.59174 -23.0744
LeftForeArm  26.7689 -35.751 -6.47588
LeftHand  -0.244104 0.0205437 5.32207
RightShoulder  6.99464 10.5935 43.2543
RightArm  6.81893 -15.7802 30.9153
RightForeArm  6.94944 14.069 7.58426
RightHand  -0.59588 0.266435 -12.2818
LeftUpLeg  4.30475 5.04949 -6.811
LeftLeg  10.3344 14.9273 -4.35595
LeftFoot  -6.28176 -0.228552 5.99722
LeftToes  4.36525e-011 -9.98543e-011 1.0027e-011
178
root  -27.0655 40.1848 -2.87927 -101.272 -84.7047 91.3705
RightUpLeg  -18.9246 -4.06104 -8.98279
RightLeg  36.882 -3.11836 -2.75571
RightFoot  3.97244 -0.723772 5.57651
RightToes  5.82063e-011 0 -3.6325e-017
Spine  8.62517 -1.17378 -3.26207
Spine1  9.14645 -0.953949 -3.07366
HEad  -11.2626 4.05489 -4.86086
LeftShoulder1  8.74701 -12.445 -47.869
LeftArm  -11.0381 6.00553 -22.645
LeftForeArm  28.7237 -40.0755 -7.57926
LeftHand  -0.244104 0.0205437 5.32207
RightShoulder  6.89408 10.4715 42.9893
RightArm  9.21655 -17.9235 30.1023
RightForeArm  3.54562 16.1441 6.94388
RightHand  -0.682938 0.700193 -13.1057
LeftUpLeg  6.01246 5.37658 -6.91475
LeftLeg  11.5246 13.7289 -4.27281
LeftFoot  -8.77055 -0.0607674 4.99595
LeftToes  4.36525e-011 -9.98543e-011 1.0027e-011
179
root  -28.374 40.0153 -2.95759 -92.5597 -84.1384 82.7336
RightUpLeg  -18.9 -6.12932 -9.06233
RightLeg  25.9496 -2.97346 -1.83384
RightFoot  4.25736 -0.822987 6.21555
RightToes  5.82063e-011 0 -3.6325e-017
Spine  8.26799 -1.35085 -4.74313
Spine1  8.98706 -1.34751 -2.41713
HEad  -11.1311 3.62171 -3.86288
LeftShoulder1  8.53914 -12.3706 -46.9343
LeftArm  -12.8591 4.19556 -22.5592
LeftForeArm  30.3305 -43.9879 -8.72848
LeftHand  -0.244104 0.0205437 5.32207
RightShoulder  6.79754 10.3459 42.7581
RightArm  8.26111 -19.1449 29.6196
RightForeArm  4.281 15.7149 7.01686
RightHand  -0.717331 0.860865 -13.4148
LeftUpLeg  7.49703 5.99279 -7.11051
LeftLeg  13.0228 12.1604 -4.0706
LeftFoot  -11.3099 0.0683621 4.07742
LeftToes  4.36525e-011 -9.98543e-011 1.0027e-011
180
root  -29.6878 39.8977 -3.04304 -87.589 -83.4659 77.8128
RightUpLeg  -18.0342 -8.2489 -8.9759
RightLeg  14.2691 -1.87896 -0.580735
RightFoot  5.54793 -0.882853 6.19668
RightToes  5.82063e-011 0 -3.6325e-017
Spine  7.76775 -1.45658 -6.13507
Spine1  9.00127 -1.69156 -1.34757
HEad  -10.9234 3.21733 -3.06788
LeftShoulder1  8.39499 -12.3247 -46.259
LeftArm  -14.4239 3.32182 -22.3053
LeftForeArm  31.5833 -47.6356 -9.97079
LeftHand  -0.244104 0.0205437 5.32207
RightShoulder  6.73608 10.2947 42.514
RightArm  4.59374 -19.4522 29.3968
RightForeArm  8.04932 13.0702 7.61486
RightHand  -0.69501 0.769849 -13.185
LeftUpLeg  9.5477 6.39798 -7.34827
LeftLeg  13.2775 10.9837 -4.05478
LeftFoot  -12.8533 0.127855 3.76678
LeftToes  4.36525e-011 -9.98543e-011 1.0027e-011
181
root  -31.0393 39.7497 -3.12902 -84.2542 -82.8519 74.3811
RightUpLeg  -16.3628 -8.83621 -9.42067
RightLeg  3.2167 -0.646015 1.10088
RightFoot  6.47809 -0.957722 6.39052
RightToes  5.82063e-011 0 -3.6325e-017
Spine  7.15122 -1.57919 -7.104
Spine1  9.30383 -2.0085 -0.411113
HEad  -10.7323 2.86738 -2.7406
LeftShoulder1  8.38073 -12.3009 -46.2492
LeftArm  -15.2866 2.84447 -21.4729
LeftForeArm  32.4442 -50.4247 -11.056
LeftHand  -0.244104 0.0205437 5.32207
RightShoulder  6.71692 10.2766 42.4444
RightArm  -0.00889849 -19.1983 29.2109
RightForeArm  12.2808 9.60182 7.84555
RightHand  -0.660019 0.580015 -12.9131
LeftUpLeg  11.9857 6.7439 -7.49256
LeftLeg  13.265 10.1301 -3.94177
LeftFoot  -14.5916 0.182593 3.40292
LeftToes  4.36525e-011 -9.98543e-011 1.0027e-011
182
root  -32.481 39.4903 -3.22324 -80.5216 -82.4269 70.5253
RightUpLeg  -15.0709 -8.67325 -9.9637
RightLeg  -3.24982 -0.494788 2.34694
RightFoot  5.29326 -0.989381 7.00394
RightToes  5.82063e-011 0 -3.6325e-017
Spine  6.24509 -1.73546 -7.26105
Spine1  9.71034 -2.16595 -0.183634
HEad  -10.5283 2.32719 -2.95684
LeftShoulder1  8.48087 -12.3428 -46.6896
LeftArm  -15.3808 2.38136 -20.4938
LeftForeArm  32.9936 -51.5709 -11.5336
LeftHand  -0.244104 0.0205437 5.32207
RightShoulder  6.68929 10.1962 42.5228
RightArm  -3.42893 -19.085 29.1082
RightForeArm  13.978 7.00655 7.3289
RightHand  -0.631023 0.328295 -12.8737
LeftUpLeg  14.2511 7.68394 -7.11224
LeftLeg  14.213 8.58728 -3.58528
LeftFoot  -17.1845 0.222125 2.34716
LeftToes  4.36525e-011 -9.98543e-011 1.0027e-011
